<svg id="visual" viewBox="0 0 960 540" width="960" height="540" xmlns="http://www.w3.org/2000/svg" xmlns:xlink="http://www.w3.org/1999/xlink" version="1.1"><rect x="0" y="0" width="960" height="540" fill="#2a2222"></rect><path d="M0 392L8 395.2C16 398.3 32 404.7 48 410.3C64 416 80 421 96 431.8C112 442.7 128 459.3 144 456.8C160 454.3 176 432.7 192 421.2C208 409.7 224 408.3 240 408.8C256 409.3 272 411.7 288 413.8C304 416 320 418 336 422.2C352 426.3 368 432.7 384 433.2C400 433.7 416 428.3 432 424.5C448 420.7 464 418.3 480 422.3C496 426.3 512 436.7 528 440.5C544 444.3 560 441.7 576 432C592 422.3 608 405.7 624 405C640 404.3 656 419.7 672 425.3C688 431 704 427 720 422.7C736 418.3 752 413.7 768 420.2C784 426.7 800 444.3 816 453.8C832 463.3 848 464.7 864 466.3C880 468 896 470 912 462.5C928 455 944 438 952 429.5L960 421L960 541L952 541C944 541 928 541 912 541C896 541 880 541 864 541C848 541 832 541 816 541C800 541 784 541 768 541C752 541 736 541 720 541C704 541 688 541 672 541C656 541 640 541 624 541C608 541 592 541 576 541C560 541 544 541 528 541C512 541 496 541 480 541C464 541 448 541 432 541C416 541 400 541 384 541C368 541 352 541 336 541C320 541 304 541 288 541C272 541 256 541 240 541C224 541 208 541 192 541C176 541 160 541 144 541C128 541 112 541 96 541C80 541 64 541 48 541C32 541 16 541 8 541L0 541Z" fill="#2a795f"></path><path d="M0 476L8 469.3C16 462.7 32 449.3 48 445.7C64 442 80 448 96 447.3C112 446.7 128 439.3 144 446.5C160 453.7 176 475.3 192 478.8C208 482.3 224 467.7 240 458.7C256 449.7 272 446.3 288 444C304 441.7 320 440.3 336 443.8C352 447.3 368 455.7 384 462.5C400 469.3 416 474.7 432 469C448 463.3 464 446.7 480 443.7C496 440.7 512 451.3 528 457.8C544 464.3 560 466.7 576 464.5C592 462.3 608 455.7 624 459C640 462.3 656 475.7 672 477.8C688 480 704 471 720 469C736 467 752 472 768 477.5C784 483 800 489 816 482.2C832 475.3 848 455.7 864 447.5C880 439.3 896 442.7 912 446.8C928 451 944 456 952 458.5L960 461L960 541L952 541C944 541 928 541 912 541C896 541 880 541 864 541C848 541 832 541 816 541C800 541 784 541 768 541C752 541 736 541 720 541C704 541 688 541 672 541C656 541 640 541 624 541C608 541 592 541 576 541C560 541 544 541 528 541C512 541 496 541 480 541C464 541 448 541 432 541C416 541 400 541 384 541C368 541 352 541 336 541C320 541 304 541 288 541C272 541 256 541 240 541C224 541 208 541 192 541C176 541 160 541 144 541C128 541 112 541 96 541C80 541 64 541 48 541C32 541 16 541 8 541L0 541Z" fill="#30906a"></path><path d="M0 452L8 456.8C16 461.7 32 471.3 48 476.7C64 482 80 483 96 480.5C112 478 128 472 144 467.7C160 463.3 176 460.7 192 462.8C208 465 224 472 240 473C256 474 272 469 288 473.8C304 478.7 320 493.3 336 497.2C352 501 368 494 384 487.3C400 480.7 416 474.3 432 476.8C448 479.3 464 490.7 480 490.8C496 491 512 480 528 475.2C544 470.3 560 471.7 576 477.2C592 482.7 608 492.3 624 489C640 485.7 656 469.3 672 462.8C688 456.3 704 459.7 720 466.3C736 473 752 483 768 485.5C784 488 800 483 816 480.3C832 477.7 848 477.3 864 483C880 488.7 896 500.3 912 498C928 495.7 944 479.3 952 471.2L960 463L960 541L952 541C944 541 928 541 912 541C896 541 880 541 864 541C848 541 832 541 816 541C800 541 784 541 768 541C752 541 736 541 720 541C704 541 688 541 672 541C656 541 640 541 624 541C608 541 592 541 576 541C560 541 544 541 528 541C512 541 496 541 480 541C464 541 448 541 432 541C416 541 400 541 384 541C368 541 352 541 336 541C320 541 304 541 288 541C272 541 256 541 240 541C224 541 208 541 192 541C176 541 160 541 144 541C128 541 112 541 96 541C80 541 64 541 48 541C32 541 16 541 8 541L0 541Z" fill="#3ba873"></path><path d="M0 483L8 486.5C16 490 32 497 48 500.3C64 503.7 80 503.3 96 505.5C112 507.7 128 512.3 144 516.2C160 520 176 523 192 517C208 511 224 496 240 496C256 496 272 511 288 512.2C304 513.3 320 500.7 336 493.3C352 486 368 484 384 490.2C400 496.3 416 510.7 432 512.7C448 514.7 464 504.3 480 503C496 501.7 512 509.3 528 515C544 520.7 560 524.3 576 522C592 519.7 608 511.3 624 508.8C640 506.3 656 509.7 672 511.8C688 514 704 515 720 510.5C736 506 752 496 768 496.5C784 497 800 508 816 509.7C832 511.3 848 503.7 864 501.2C880 498.7 896 501.3 912 506C928 510.7 944 517.3 952 520.7L960 524L960 541L952 541C944 541 928 541 912 541C896 541 880 541 864 541C848 541 832 541 816 541C800 541 784 541 768 541C752 541 736 541 720 541C704 541 688 541 672 541C656 541 640 541 624 541C608 541 592 541 576 541C560 541 544 541 528 541C512 541 496 541 480 541C464 541 448 541 432 541C416 541 400 541 384 541C368 541 352 541 336 541C320 541 304 541 288 541C272 541 256 541 240 541C224 541 208 541 192 541C176 541 160 541 144 541C128 541 112 541 96 541C80 541 64 541 48 541C32 541 16 541 8 541L0 541Z" fill="#4abf7b"></path></svg>